<svg width="40" height="40" viewBox="0 0 40 40" fill="none" xmlns="http://www.w3.org/2000/svg">
<path d="M4 8.70703L8.844 17.3654V22.6467L4.00567 31.288L4 8.70703Z" fill="#5B57A2"/>
<path d="M22.5989 14.2145L27.1379 11.4325L36.4273 11.4238L22.5989 19.8952V14.2145Z" fill="#D90751"/>
<path d="M22.5733 8.65566L22.599 20.119L17.7436 17.1356V0L22.5736 8.65566H22.5733Z" fill="#FAB718"/>
<path d="M36.4273 11.4237L27.1376 11.4323L22.5733 8.65566L17.7436 0L36.427 11.4237H36.4273Z" fill="#ED6F26"/>
<path d="M22.599 31.336V25.7743L17.7436 22.8477L17.7463 40.0003L22.599 31.336Z" fill="#63B22F"/>
<path d="M27.1266 28.5793L8.84366 17.3654L4 8.70703L36.4076 28.568L27.1263 28.5793H27.1266Z" fill="#1487C9"/>
<path d="M17.7467 39.9997L22.5987 31.3354L27.1264 28.5787L36.4074 28.5674L17.7467 39.9997Z" fill="#017F36"/>
<path d="M4.0057 31.2878L17.7833 22.8479L13.1514 20.0059L8.84402 22.6465L4.0057 31.2878Z" fill="#984995"/>
</svg>
